# xmcd
#
# Track frame offsets:
#	150
#	11487
#	25647
#	42677
#	58240
#	74847
#	94565
#	107662
#	117200
#	132520
#	150180
#	166132
#	179067
#	190595
#	200000
#	222857
#	247945
#	270690
#
# Disc length: 3792 seconds
#
# Revision: 0
# Processed by: cddbd v1.5PL3 Copyright (c) Steve Scherf et al.
# Submitted via: dBpowerAMP V4.0
#
DISCID=fe0ece12
DTITLE=Buddy Moss - Atlanta Blues Legend
DYEAR=1900
DGENRE=Blues
TTITLE0=Hurry Home
TTITLE1=Red River
TTITLE2=Pushin' It
TTITLE3=Comin' Back
TTITLE4=How I Feel Today
TTITLE5=That'll Never Happen No More
TTITLE6=Oh Lawdy Mama
TTITLE7=I'm Sitting On The Top Of The World
TTITLE8=Kansas City
TTITLE9=It Was The Weary Hour Night
TTITLE10=Chesterfield
TTITLE11=I've Got To Keep To The Highway
TTITLE12=Come On Around To Mye House
TTITLE13=Step It Up And Go
TTITLE14=Everyday Seems Like Sunday
TTITLE15=I Got A Woman, Don't Mean Me No Good
TTITLE16=Betty And Dupree
TTITLE17=Every Day
EXTD=1920-30 Blues, acc. by Jeff Espina/ J.J.\nBiograph Records
EXTT0=
EXTT1=
EXTT2=
EXTT3=
EXTT4=
EXTT5=
EXTT6=
EXTT7=
EXTT8=
EXTT9=
EXTT10=
EXTT11=
EXTT12=
EXTT13=
EXTT14=
EXTT15=
EXTT16=
EXTT17=
PLAYORDER=
